HIERARCHY
ROOT root
{
	OFFSET 0.000000 0.000000 0.000000
	CHANNELS 6 Xposition Yposition Zposition Zrotation Yrotation Xrotation
	JOINT lhip
	{
		OFFSET 0.058581 -0.082280 -0.017664
		CHANNELS 3 Zrotation Yrotation Xrotation
		JOINT lknee
		{
			OFFSET 0.043451 -0.386469 0.008037
			CHANNELS 3 Zrotation Yrotation Xrotation
			JOINT lankle
			{
				OFFSET -0.014790 -0.426874 -0.037428
				CHANNELS 3 Zrotation Yrotation Xrotation
				JOINT ltoe
				{
					OFFSET 0.041054 -0.060286 0.122042
					CHANNELS 3 Zrotation Yrotation Xrotation
					End Site
					{
						OFFSET 0.000000 0.000000 0.000000
					}
				}
			}
		}
	}
	JOINT rhip
	{
		OFFSET -0.060310 -0.090513 -0.013543
		CHANNELS 3 Zrotation Yrotation Xrotation
		JOINT rknee
		{
			OFFSET -0.043257 -0.383688 -0.004843
			CHANNELS 3 Zrotation Yrotation Xrotation
			JOINT rankle
			{
				OFFSET 0.019056 -0.420046 -0.034562
				CHANNELS 3 Zrotation Yrotation Xrotation
				JOINT rtoe
				{
					OFFSET -0.034840 -0.062106 0.130323
					CHANNELS 3 Zrotation Yrotation Xrotation
					End Site
					{
						OFFSET 0.000000 0.000000 0.000000
					}
				}
			}
		}
	}
	JOINT lowerback
	{
		OFFSET 0.004439 0.124404 -0.038385
		CHANNELS 3 Zrotation Yrotation Xrotation
		JOINT upperback
		{
			OFFSET 0.004488 0.137956 0.026820
			CHANNELS 3 Zrotation Yrotation Xrotation
			JOINT chest
			{
				OFFSET -0.002265 0.056032 0.002855
				CHANNELS 3 Zrotation Yrotation Xrotation
				JOINT lowerneck
				{
					OFFSET -0.013390 0.211636 -0.033468
					CHANNELS 3 Zrotation Yrotation Xrotation
					JOINT upperneck
					{
						OFFSET 0.010113 0.088937 0.050410
						CHANNELS 3 Zrotation Yrotation Xrotation
						End Site
						{
							OFFSET 0.000000 0.000000 0.000000
						}
					}
				}
				JOINT lclavicle
				{
					OFFSET 0.071702 0.114000 -0.018898
					CHANNELS 3 Zrotation Yrotation Xrotation
					JOINT lshoulder
					{
						OFFSET 0.122921 0.045205 -0.019046
						CHANNELS 3 Zrotation Yrotation Xrotation
						JOINT lelbow
						{
							OFFSET 0.255332 -0.015649 -0.022946
							CHANNELS 3 Zrotation Yrotation Xrotation
							JOINT lwrist
							{
								OFFSET 0.265709 0.012698 -0.007375
								CHANNELS 3 Zrotation Yrotation Xrotation
								End Site
								{
									OFFSET 0.000000 0.000000 0.000000
								}
							}
						}
					}
				}
				JOINT rclavicle
				{
					OFFSET -0.082954 0.112472 -0.023707
					CHANNELS 3 Zrotation Yrotation Xrotation
					JOINT rshoulder
					{
						OFFSET -0.113228 0.046853 -0.008472
						CHANNELS 3 Zrotation Yrotation Xrotation
						JOINT relbow
						{
							OFFSET -0.260127 -0.014369 -0.031269
							CHANNELS 3 Zrotation Yrotation Xrotation
							JOINT rwrist
							{
								OFFSET -0.269108 0.006794 -0.006027
								CHANNELS 3 Zrotation Yrotation Xrotation
								End Site
								{
									OFFSET 0.000000 0.000000 0.000000
								}
							}
						}
					}
				}
			}
		}
	}
}
MOTION
Frames: 15
Frame Time: 0.033333
0.059805 0.242820 1.008103 86.844221 0.496610 88.265843 2.078014 3.766128 2.481072 2.084111 -3.273033 4.010612 0.878948 10.755076 -7.005801 0.000000 -0.000000 0.000000 -1.742109 -3.987685 -1.215258 -2.175495 0.713519 7.220241 1.212455 -7.179985 -3.295887 0.000000 -0.000000 0.000000 0.903437 2.694272 1.366859 3.904378 -4.217724 10.966095 0.085535 0.391075 -7.432108 -1.242156 1.908909 -6.702513 -0.998036 -1.231071 1.001123 -31.684046 -4.174506 0.194772 -49.227437 -6.895911 10.873668 12.049329 -7.393397 -7.157079 -17.151273 -3.371508 5.835513 31.321912 9.500786 1.048958 36.054204 12.268559 4.992501 -15.649780 9.897748 -16.542253 17.065209 1.904291 4.362056 
0.062348 0.242081 1.007876 86.805870 0.526732 88.379616 2.076432 3.529315 2.719093 2.065417 -3.739111 3.684721 0.595892 11.513476 -6.970560 0.000000 -0.000000 0.000000 -1.678303 -3.813332 -0.995745 -2.132050 1.076777 6.958389 1.578507 -7.820654 -3.364757 0.000000 -0.000000 0.000000 0.897491 2.474941 1.476340 3.657267 -3.702986 10.679143 0.379465 0.461704 -6.290435 -1.150767 1.594877 -7.492505 -0.901449 -1.108377 -0.179339 -31.606941 -1.307610 0.508519 -49.241557 -3.951989 11.083144 11.522950 -7.812819 -5.247445 -19.475061 -5.675517 5.648554 31.444091 6.991483 0.811129 38.165417 8.624802 5.359056 -15.313355 7.353852 -15.777113 18.678200 2.146188 2.286710 
0.065161 0.241638 1.007888 86.813564 0.491603 88.437387 2.035987 3.421947 2.969025 2.051294 -4.063567 3.393892 0.580237 11.950772 -7.042541 0.000000 -0.000000 0.000000 -1.706586 -3.895602 -0.755462 -2.114774 1.266324 6.761241 1.681711 -8.041211 -3.476694 0.000000 -0.000000 0.000000 0.819354 2.494093 1.386147 3.612822 -3.519377 11.033623 0.489552 0.357766 -5.794250 -1.087804 1.406671 -7.739849 -0.712439 -1.167650 -1.205627 -31.341813 1.222124 0.695223 -49.881898 -0.985571 10.917768 11.523173 -7.683167 -5.416120 -20.092572 -6.864547 5.357000 31.616569 4.689367 0.806973 40.054290 5.093407 5.648847 -14.643686 5.537865 -15.000310 19.548714 2.060869 1.385780 
0.067373 0.241710 1.007903 87.040780 0.505160 88.464972 2.079241 3.526065 3.017148 1.984594 -4.613581 3.446057 0.638637 12.279597 -7.038362 0.000000 -0.000000 0.000000 -1.655544 -3.857322 -0.585314 -2.129352 1.338641 6.743101 1.850413 -8.356407 -3.615172 0.000000 -0.000000 0.000000 0.878640 2.328332 1.863143 3.599428 -3.333360 10.625877 0.597379 0.262742 -5.094302 -1.182607 1.081301 -7.812087 -0.554055 -1.133901 -2.008979 -30.792024 4.123717 0.620357 -51.353617 1.907391 10.486464 11.750441 -6.363909 -6.249610 -19.116047 -6.642425 4.424071 31.606457 1.709697 0.718266 42.659291 1.001791 5.978157 -14.118945 4.694065 -14.222196 19.703209 2.066382 0.426608 
0.067573 0.241850 1.007919 87.144760 0.494885 88.563742 2.090905 3.526721 2.859053 1.946113 -4.787587 3.460702 0.548475 12.374780 -7.076014 0.000000 -0.000000 0.000000 -1.622437 -3.963420 -0.704234 -2.156529 1.471452 6.800838 1.924427 -8.480317 -3.620705 0.000000 -0.000000 0.000000 0.815785 2.365920 1.806720 3.678803 -3.381266 10.839505 0.655667 0.252661 -4.813840 -1.323723 0.983064 -7.790008 -0.436251 -1.086985 -2.498144 -30.566643 5.472189 0.443641 -52.054051 2.999340 10.449270 11.621373 -5.082672 -6.469242 -18.651463 -5.836840 4.451355 31.625408 0.128465 0.467083 44.063547 -1.180364 5.973136 -13.882542 4.592714 -14.274777 19.443062 2.190380 0.049811 
0.067535 0.242176 1.008025 87.334090 0.459412 88.649299 2.041902 3.543794 2.794558 1.951689 -5.138653 3.351077 0.542170 12.539354 -7.000558 0.000000 -0.000000 0.000000 -1.597723 -3.900028 -0.644370 -2.212284 1.523876 6.623940 2.028188 -8.796629 -3.586838 0.000000 -0.000000 0.000000 0.811336 2.334679 1.992081 3.706746 -3.402867 10.704569 0.702610 0.202400 -4.446441 -1.417476 0.726058 -7.454312 -0.382275 -0.986922 -3.006481 -30.331813 7.009793 0.288790 -52.829292 4.095614 10.741775 11.528089 -3.664465 -5.745012 -18.515748 -5.186817 4.876183 31.647293 -1.850468 0.009375 45.829726 -3.537247 5.877781 -13.465994 4.071340 -14.182500 19.104503 2.419043 -0.616072 
0.067397 0.242132 1.008140 87.438505 0.429090 88.710012 2.017586 3.704888 2.729152 1.950645 -5.452219 3.327671 0.520765 12.681965 -6.867591 0.000000 -0.000000 0.000000 -1.519757 -3.964834 -0.459898 -2.344331 1.659198 6.189931 2.080083 -9.027483 -3.440777 0.000000 -0.000000 0.000000 0.847989 2.373647 2.198897 3.703687 -3.470841 10.626121 0.695215 0.111609 -4.298894 -1.560579 0.520945 -6.952440 -0.240883 -0.609427 -3.508705 -30.381362 7.793469 0.254549 -53.047778 5.047752 11.351797 11.172483 -2.741711 -4.492197 -19.085661 -4.241413 5.473579 31.629216 -3.418074 -0.234911 47.516644 -5.646363 5.804686 -13.195260 4.239477 -14.216196 18.922476 2.505284 -1.764570 
0.066655 0.242092 1.008366 87.562392 0.428221 88.826062 1.991806 3.725743 2.548777 1.977962 -5.625273 3.289823 0.522595 12.755574 -6.765742 0.000000 -0.000000 0.000000 -1.434976 -4.043166 -0.420534 -2.448526 1.733579 5.855548 2.147809 -9.217718 -3.391141 0.000000 -0.000000 0.000000 0.971508 2.353387 2.302119 3.664463 -3.621236 10.676735 0.606901 0.105141 -4.232520 -1.691381 0.322219 -6.536542 0.044568 -0.478625 -3.851216 -30.385269 8.233180 0.401457 -53.077090 5.459044 12.258452 10.392129 -2.916754 -2.322352 -20.634076 -3.851831 6.250145 31.655587 -4.434955 -0.427633 49.009914 -7.077332 5.681107 -12.778395 3.975205 -14.160091 19.568162 2.961894 -2.924555 
0.065203 0.242116 1.008778 87.482216 0.430535 88.850671 1.959999 3.688231 2.422194 2.008467 -5.590011 3.293583 0.528828 12.841422 -6.713456 0.000000 -0.000000 0.000000 -1.366636 -3.896164 -0.499043 -2.551913 1.737499 5.769500 2.224917 -9.315879 -3.320119 0.000000 -0.000000 0.000000 1.015945 2.245292 2.553852 3.614913 -3.636997 10.628050 0.618080 0.154373 -4.081407 -1.775733 0.260063 -6.209729 0.187061 -0.314024 -4.070279 -30.348491 8.479876 0.543474 -53.266994 5.427492 13.134961 9.671306 -4.161534 -0.058182 -22.201138 -4.073586 6.694560 31.543392 -4.906745 -0.411711 50.321412 -7.755448 5.849595 -12.333887 4.051328 -13.719749 20.430967 3.032595 -4.394603 
0.062868 0.242294 1.009325 87.304587 0.383052 89.008579 1.822844 3.582159 2.169872 2.090689 -5.365992 3.140201 0.579627 12.829345 -6.469202 0.000000 -0.000000 0.000000 -1.407104 -3.827565 -0.837974 -2.571507 1.681404 5.692904 2.294440 -9.241940 -3.106389 0.000000 -0.000000 0.000000 1.020180 2.204292 2.740089 3.566330 -3.663334 10.542900 0.674469 0.083339 -3.923981 -1.858485 0.259709 -5.870419 0.295294 -0.260691 -4.163818 -30.280635 8.301138 0.582341 -53.789013 4.862230 13.788826 8.898678 -5.828790 1.471653 -23.728960 -4.690932 6.553181 31.478593 -4.909200 -0.246203 51.296875 -7.769446 6.553998 -11.599849 4.771449 -12.436441 21.547272 3.139277 -4.947550 
0.060532 0.242429 1.009946 87.023835 0.337039 89.052207 1.697950 3.453352 2.064320 2.140532 -4.951057 3.027857 0.690400 12.811005 -6.335695 0.000000 -0.000000 0.000000 -1.486412 -3.764027 -1.159383 -2.545256 1.581475 5.826840 2.342036 -8.976987 -3.011840 0.000000 -0.000000 0.000000 0.927838 2.204556 2.951766 3.530071 -3.609658 10.689035 0.747110 0.103266 -3.987441 -1.904901 0.213320 -5.862688 0.432125 -0.369094 -4.085015 -30.348891 7.766879 0.603183 -54.057059 4.039928 13.920538 8.438319 -7.890662 1.719831 -23.853773 -5.153003 6.225964 31.521106 -4.222077 0.162292 51.668043 -7.364775 7.401808 -10.940923 5.963806 -11.032030 22.196856 3.329582 -4.587035 
0.058157 0.242141 1.010218 86.943559 0.506136 89.008306 1.945985 3.455321 1.915675 2.063017 -4.744095 3.130950 0.648052 12.633148 -6.300338 0.000000 -0.000000 0.000000 -1.258641 -3.625110 -1.264107 -2.593631 1.335578 5.812771 2.337693 -8.796643 -2.929327 0.000000 -0.000000 0.000000 1.033323 2.088864 3.419211 3.493798 -3.535319 10.599348 0.778084 0.090602 -4.140140 -1.794146 0.216644 -5.815970 0.517443 -0.464033 -3.858837 -30.443381 6.981267 0.559442 -54.199029 3.174285 14.228203 8.229206 -10.819542 2.155593 -22.870323 -5.884882 6.266223 31.551296 -3.367411 0.471676 51.790521 -6.753944 8.239272 -10.212005 7.808020 -9.627871 21.935946 3.757160 -3.964548 
0.055747 0.242696 1.010371 86.665942 0.436575 89.130340 1.807778 3.358768 1.629329 2.089708 -4.385075 3.194165 0.748952 12.541474 -6.218818 0.000000 -0.000000 0.000000 -1.373037 -3.529833 -1.635468 -2.599522 1.211098 5.870428 2.263786 -8.472883 -2.831986 0.000000 -0.000000 0.000000 1.012297 2.103923 3.549721 3.411192 -3.471150 10.751124 0.695740 0.180319 -4.453538 -1.734188 0.124111 -5.773407 0.691266 -0.577362 -3.576807 -30.616259 5.926892 0.487759 -54.196523 2.208574 14.805458 8.344207 -14.170371 2.697473 -21.595360 -6.362997 6.721613 31.645386 -2.363614 0.881143 51.649894 -5.928783 8.902617 -9.897907 10.306943 -8.856160 21.158881 4.375515 -3.528794 
0.053553 0.242900 1.010436 86.449074 0.393961 89.246051 1.751926 3.333111 1.288276 2.066873 -3.980038 3.377255 0.766272 12.308170 -6.175867 0.000000 -0.000000 0.000000 -1.390887 -3.503590 -1.924215 -2.692249 0.998988 5.842394 2.209836 -8.084858 -2.693434 0.000000 -0.000000 0.000000 1.047588 2.111423 3.599775 3.308485 -3.449194 10.903032 0.557036 0.257860 -4.888276 -1.757496 0.063521 -5.476558 0.818081 -0.681275 -3.205489 -30.803579 4.675879 0.403477 -53.865489 1.220906 15.343837 8.426569 -17.570541 2.852096 -19.480704 -6.980565 7.272959 31.668972 -1.316489 1.278168 51.397721 -5.223585 9.414800 -9.817553 13.543702 -8.776885 19.570516 5.242483 -3.286079 
0.051548 0.243596 1.010528 86.247861 0.306569 89.219013 1.622707 3.264200 1.073051 2.087687 -3.574836 3.647283 0.834236 12.087007 -6.239723 0.000000 -0.000000 0.000000 -1.514218 -3.458688 -2.034383 -2.753515 0.789279 5.819025 2.188885 -7.704217 -2.589387 0.000000 -0.000000 0.000000 1.095296 2.179407 3.693518 3.194702 -3.493183 11.190092 0.463424 0.314731 -5.297151 -1.881901 -0.055360 -5.324153 0.919874 -0.849550 -2.940198 -31.137688 3.163434 0.278970 -53.686528 0.054797 15.536434 9.290110 -20.217753 2.108598 -17.319493 -7.545030 7.646988 31.659051 -0.121402 1.714576 50.982385 -4.304060 9.653910 -10.123707 16.967150 -9.203639 17.674914 6.154195 -3.117535 
